:SAMPLES-PER-SECOND 30
:FULLY-SPECIFIED
:DEGREES
1
root  75.0982 40.4052 19.3519 -173.273 -87.6516 175.681
RightUpLeg  -0.703202 -6.44486 -2.13869
RightLeg  2.45496 -4.93273 3.9689
RightFoot  -3.68187 0.223489 -3.73091
RightToes  -1.16417e-010 0 -3.6325e-017
Spine  -1.70765 -0.904044 -1.03538
Spine1  3.73503 -1.4529 2.545
HEad  -5.37445 4.10079 -1.42694
LeftShoulder1  0.697078 0.0542263 -12.9985
LeftArm  -6.11933 21.7273 -29.8248
LeftForeArm  35.1779 -50.006 -10.6709
LeftHand  -0.244104 0.0205437 5.32207
RightShoulder  0.577799 -0.211258 10.2532
RightArm  -15.9471 -2.51825 2.08839
RightForeArm  -3.82006 1.47677 4.61394
RightHand  -3.24242 11.1149 -22.8552
LeftUpLeg  -0.00179899 4.46418 1.38713
LeftLeg  0.511574 14.1371 -4.5747
LeftFoot  -3.33997 -0.182057 2.95563
LeftToes  5.72949e-011 -1.2716e-010 -5.73128e-012
2
root  75.0898 40.4052 19.3492 -173.727 -87.6142 176.128
RightUpLeg  -0.720308 -6.44478 -2.1265
RightLeg  2.53366 -4.8721 3.9708
RightFoot  -3.68059 0.221958 -3.70702
RightToes  -1.16417e-010 0 -3.6325e-017
Spine  -1.70612 -0.906229 -0.987556
Spine1  3.76103 -1.42856 2.4473
HEad  -5.41674 4.04967 -1.50322
LeftShoulder1  0.661175 0.218884 -12.8989
LeftArm  -6.98069 21.6758 -29.9564
LeftForeArm  34.1697 -49.2976 -10.4483
LeftHand  -0.244104 0.0205437 5.32207
RightShoulder  0.57921 -0.215389 10.3487
RightArm  -15.967 -2.53711 2.08084
RightForeArm  -3.83098 1.44825 4.60518
RightHand  -3.25839 11.1834 -22.8723
LeftUpLeg  0.0605295 4.47862 1.41644
LeftLeg  0.428079 14.1538 -4.60404
LeftFoot  -3.31411 -0.178712 2.90359
LeftToes  5.72949e-011 -1.2716e-010 -5.73128e-012
3
root  75.0722 40.4052 19.3434 -174.365 -87.5863 176.798
RightUpLeg  -0.727734 -6.43907 -2.09832
RightLeg  2.53577 -4.84669 3.98762
RightFoot  -3.68114 0.22097 -3.69161
RightToes  -1.16417e-010 0 -3.6325e-017
Spine  -1.76491 -0.924256 -0.999302
Spine1  3.81288 -1.4443 2.429
HEad  -5.43827 4.01808 -1.59014
LeftShoulder1  0.616479 0.442255 -12.8896
LeftArm  -8.09063 21.5996 -30.05
LeftForeArm  32.8433 -48.4261 -10.1906
LeftHand  -0.244104 0.0205437 5.32207
RightShoulder  0.587276 -0.181917 10.4331
RightArm  -16.0373 -2.57159 2.05841
RightForeArm  -3.69259 1.36682 4.5604
RightHand  -3.24311 11.165 -22.7936
LeftUpLeg  0.0677493 4.49479 1.45172
LeftLeg  0.403467 14.1775 -4.60679
LeftFoot  -3.31881 -0.177483 2.88446
LeftToes  5.72949e-011 -1.2716e-010 -5.73128e-012
4
root  75.0481 40.4048 19.3372 -174.616 -87.602 177.097
RightUpLeg  -0.689185 -6.42389 -2.07257
RightLeg  2.43038 -4.89868 4.00115
RightFoot  -3.69947 0.222336 -3.71292
RightToes  -1.16417e-010 0 -3.6325e-017
Spine  -1.90302 -0.964636 -1.10954
Spine1  3.89453 -1.50804 2.53941
HEad  -5.35977 3.94283 -1.68792
LeftShoulder1  0.605621 0.509297 -12.9783
LeftArm  -9.12427 21.4703 -30.0123
LeftForeArm  31.4232 -47.546 -9.94637
LeftHand  -0.244104 0.0205437 5.32207
RightShoulder  0.601586 -0.10781 10.4735
RightArm  -16.1168 -2.59999 2.02841
RightForeArm  -3.65326 1.26716 4.51039
RightHand  -3.21382 11.0217 -22.7851
LeftUpLeg  0.0458447 4.50543 1.46836
LeftLeg  0.426798 14.1553 -4.59191
LeftFoot  -3.37974 -0.178293 2.89707
LeftToes  5.72949e-011 -1.2716e-010 -5.73128e-012
5
root  75.0245 40.4027 19.3354 -174.498 -87.6322 176.988
RightUpLeg  -0.612559 -6.43499 -2.08088
RightLeg  2.3366 -4.92405 4.02069
RightFoot  -3.73096 0.223518 -3.73868
RightToes  -1.16417e-010 0 -3.6325e-017
Spine  -2.0047 -0.977653 -1.23131
Spine1  3.95332 -1.5461 2.66948
HEad  -5.23099 3.75614 -1.88244
LeftShoulder1  0.619454 0.445542 -13.0182
LeftArm  -10.1257 21.3186 -29.9579
LeftForeArm  29.9312 -46.6356 -9.70475
LeftHand  -0.244104 0.0205437 5.32207
RightShoulder  0.603774 -0.0895718 10.4393
RightArm  -16.1322 -2.69058 2.08043
RightForeArm  -4.18059 1.30102 4.52351
RightHand  -3.19675 10.7693 -23.0077
LeftUpLeg  0.09001 4.53539 1.48423
LeftLeg  0.398296 14.0805 -4.62489
LeftFoot  -3.43369 -0.175987 2.86118
LeftToes  5.72949e-011 -1.2716e-010 -5.73128e-012
